<?xml version="1.0" encoding="UTF-8" standalone="no" ?>
<!DOCTYPE svg PUBLIC "-//W3C//DTD SVG 1.1//EN" "http://www.w3.org/Graphics/SVG/1.1/DTD/svg11.dtd">
<svg xmlns="http://www.w3.org/2000/svg" xmlns:xlink="http://www.w3.org/1999/xlink" version="1.1" width="476.4266796875" height="139.41103999999996" xml:space="preserve">
<desc>Created with Fabric.js 1.6.0-rc.1</desc>
<defs></defs>
  <g transform="translate(304.87 61.56) scale(1.93 1.93)">
   <text font-family="Interlude" font-size="40" font-weight="normal" style="stroke: none; stroke-width: 1; stroke-dasharray: none; stroke-linecap: butt; stroke-linejoin: miter; stroke-miterlimit: 10; fill: #2fb380; fill-rule: nonzero; opacity: 1;" ><tspan x="-84.21" y="8.98" style="stroke: none; stroke-width: 0; stroke-dasharray: none; stroke-linecap: butt; stroke-linejoin: miter; stroke-miterlimit: 4; fill: #2fb380; fill-rule: ; opacity: 1;">T</tspan><tspan x="-63.94" y="8.98" style="stroke: none; stroke-width: 0; stroke-dasharray: none; stroke-linecap: butt; stroke-linejoin: miter; stroke-miterlimit: 4; fill: #2fb380; fill-rule: ; opacity: 1;">h</tspan><tspan x="-40.46" y="8.98" style="stroke: none; stroke-width: 0; stroke-dasharray: none; stroke-linecap: butt; stroke-linejoin: miter; stroke-miterlimit: 4; fill: #2fb380; fill-rule: ; opacity: 1;">o</tspan><tspan x="-18.02" y="8.98" style="stroke: none; stroke-width: 0; stroke-dasharray: none; stroke-linecap: butt; stroke-linejoin: miter; stroke-miterlimit: 4; fill: #2fb380; fill-rule: ; opacity: 1;">u</tspan><tspan x="5.4" y="8.98" style="stroke: none; stroke-width: 0; stroke-dasharray: none; stroke-linecap: butt; stroke-linejoin: miter; stroke-miterlimit: 4; fill: #2fb380; fill-rule: ; opacity: 1;">g</tspan><tspan x="28.82" y="8.98" style="stroke: none; stroke-width: 0; stroke-dasharray: none; stroke-linecap: butt; stroke-linejoin: miter; stroke-miterlimit: 4; fill: #2fb380; fill-rule: ; opacity: 1;">h</tspan><tspan x="52.29" y="8.98" style="stroke: none; stroke-width: 0; stroke-dasharray: none; stroke-linecap: butt; stroke-linejoin: miter; stroke-miterlimit: 4; fill: #2fb380; fill-rule: ; opacity: 1;">t</tspan><tspan x="64.21" y="8.98" style="stroke: none; stroke-width: 0; stroke-dasharray: none; stroke-linecap: butt; stroke-linejoin: miter; stroke-miterlimit: 4; fill: #2fb380; fill-rule: ; opacity: 1;">s</tspan></text>
 </g>
  <g transform="translate(279.23 110.9) scale(0.8 0.72)">
   <text font-family="King Of The World" font-size="40" font-weight="normal" style="stroke: none; stroke-width: 1; stroke-dasharray: none; stroke-linecap: butt; stroke-linejoin: miter; stroke-miterlimit: 10; fill: #bababa; fill-rule: nonzero; opacity: 1;" ><tspan x="-163.54" y="8.98" style="stroke: none; stroke-width: 0; stroke-dasharray: none; stroke-linecap: butt; stroke-linejoin: miter; stroke-miterlimit: 4; fill: #bababa; fill-rule: ; opacity: 1;">S</tspan><tspan x="-137.52" y="8.98" style="stroke: none; stroke-width: 0; stroke-dasharray: none; stroke-linecap: butt; stroke-linejoin: miter; stroke-miterlimit: 4; fill: #bababa; fill-rule: ; opacity: 1;">h</tspan><tspan x="-117.99" y="8.98" style="stroke: none; stroke-width: 0; stroke-dasharray: none; stroke-linecap: butt; stroke-linejoin: miter; stroke-miterlimit: 4; fill: #bababa; fill-rule: ; opacity: 1;">a</tspan><tspan x="-98.46" y="8.98" style="stroke: none; stroke-width: 0; stroke-dasharray: none; stroke-linecap: butt; stroke-linejoin: miter; stroke-miterlimit: 4; fill: #bababa; fill-rule: ; opacity: 1;">r</tspan><tspan x="-83.14" y="8.98" style="stroke: none; stroke-width: 0; stroke-dasharray: none; stroke-linecap: butt; stroke-linejoin: miter; stroke-miterlimit: 4; fill: #bababa; fill-rule: ; opacity: 1;">e</tspan><tspan x="-64.47" y="8.98" style="stroke: none; stroke-width: 0; stroke-dasharray: none; stroke-linecap: butt; stroke-linejoin: miter; stroke-miterlimit: 4; fill: #bababa; fill-rule: ; opacity: 1;"> </tspan><tspan x="-53.36" y="8.98" style="stroke: none; stroke-width: 0; stroke-dasharray: none; stroke-linecap: butt; stroke-linejoin: miter; stroke-miterlimit: 4; fill: #bababa; fill-rule: ; opacity: 1;">y</tspan><tspan x="-33.52" y="8.98" style="stroke: none; stroke-width: 0; stroke-dasharray: none; stroke-linecap: butt; stroke-linejoin: miter; stroke-miterlimit: 4; fill: #bababa; fill-rule: ; opacity: 1;">o</tspan><tspan x="-14.77" y="8.98" style="stroke: none; stroke-width: 0; stroke-dasharray: none; stroke-linecap: butt; stroke-linejoin: miter; stroke-miterlimit: 4; fill: #bababa; fill-rule: ; opacity: 1;">u</tspan><tspan x="4.77" y="8.98" style="stroke: none; stroke-width: 0; stroke-dasharray: none; stroke-linecap: butt; stroke-linejoin: miter; stroke-miterlimit: 4; fill: #bababa; fill-rule: ; opacity: 1;">r</tspan><tspan x="20.08" y="8.98" style="stroke: none; stroke-width: 0; stroke-dasharray: none; stroke-linecap: butt; stroke-linejoin: miter; stroke-miterlimit: 4; fill: #bababa; fill-rule: ; opacity: 1;"> </tspan><tspan x="31.19" y="8.98" style="stroke: none; stroke-width: 0; stroke-dasharray: none; stroke-linecap: butt; stroke-linejoin: miter; stroke-miterlimit: 4; fill: #bababa; fill-rule: ; opacity: 1;">t</tspan><tspan x="50.72" y="8.98" style="stroke: none; stroke-width: 0; stroke-dasharray: none; stroke-linecap: butt; stroke-linejoin: miter; stroke-miterlimit: 4; fill: #bababa; fill-rule: ; opacity: 1;">h</tspan><tspan x="70.25" y="8.98" style="stroke: none; stroke-width: 0; stroke-dasharray: none; stroke-linecap: butt; stroke-linejoin: miter; stroke-miterlimit: 4; fill: #bababa; fill-rule: ; opacity: 1;">i</tspan><tspan x="77.83" y="8.98" style="stroke: none; stroke-width: 0; stroke-dasharray: none; stroke-linecap: butt; stroke-linejoin: miter; stroke-miterlimit: 4; fill: #bababa; fill-rule: ; opacity: 1;">n</tspan><tspan x="98.07" y="8.98" style="stroke: none; stroke-width: 0; stroke-dasharray: none; stroke-linecap: butt; stroke-linejoin: miter; stroke-miterlimit: 4; fill: #bababa; fill-rule: ; opacity: 1;">k</tspan><tspan x="117.44" y="8.98" style="stroke: none; stroke-width: 0; stroke-dasharray: none; stroke-linecap: butt; stroke-linejoin: miter; stroke-miterlimit: 4; fill: #bababa; fill-rule: ; opacity: 1;">i</tspan><tspan x="125.02" y="8.98" style="stroke: none; stroke-width: 0; stroke-dasharray: none; stroke-linecap: butt; stroke-linejoin: miter; stroke-miterlimit: 4; fill: #bababa; fill-rule: ; opacity: 1;">n</tspan><tspan x="145.25" y="8.98" style="stroke: none; stroke-width: 0; stroke-dasharray: none; stroke-linecap: butt; stroke-linejoin: miter; stroke-miterlimit: 4; fill: #bababa; fill-rule: ; opacity: 1;">g</tspan></text>
 </g>
<g style="stroke: none; stroke-width: 1; stroke-dasharray: none; stroke-linecap: butt; stroke-linejoin: miter; stroke-miterlimit: 10; fill: none; fill-rule: nonzero; opacity: 1;" transform="translate(10 10) scale(0.23 0.23)" >
  <circle cx="256" cy="256" r="256" style="stroke: none; stroke-width: 1; stroke-dasharray: none; stroke-linecap: butt; stroke-linejoin: miter; stroke-miterlimit: 10; fill: #2fb380; fill-rule: nonzero; opacity: 1;" transform="  matrix(1 0 0 1 0 0) "/>
  <path d="M 351.418 258.327 c 0 -26.731 -21.811 -48.873 -48.873 -48.873 c -26.889 0 -48.873 21.872 -48.873 48.873 c 0 16.575 8.299 31.218 20.945 40.057 v 13.47 h 55.855 v -13.47 C 343.119 289.545 351.418 274.902 351.418 258.327 z" style="stroke: none; stroke-width: 1; stroke-dasharray: none; stroke-linecap: butt; stroke-linejoin: miter; stroke-miterlimit: 10; fill: #F7B4B4; fill-rule: nonzero; opacity: 1;" transform=" matrix(1 0 0 1 0 0) " stroke-linecap="round" />
  <path d="M 253.673 258.327 c 0 16.575 8.299 31.218 20.945 40.057 v 13.47 h 27.927 v -102.4 C 275.656 209.455 253.673 231.326 253.673 258.327 z" style="stroke: none; stroke-width: 1; stroke-dasharray: none; stroke-linecap: butt; stroke-linejoin: miter; stroke-miterlimit: 10; fill: #FBC8C8; fill-rule: nonzero; opacity: 1;" transform=" matrix(1 0 0 1 0 0) " stroke-linecap="round" />
  <path d="M 404.945 404.945 h -204.8 l 5.115 -60.43 c 0 -8.313 5.511 -15.616 13.503 -17.901 l 55.855 -14.76 h 55.855 l 55.855 14.76 c 7.992 2.285 13.503 9.588 13.503 17.901 L 404.945 404.945 z" style="stroke: none; stroke-width: 1; stroke-dasharray: none; stroke-linecap: butt; stroke-linejoin: miter; stroke-miterlimit: 10; fill: #1f1f1f; fill-rule: nonzero; opacity: 1;" transform=" matrix(1 0 0 1 0 0) " stroke-linecap="round" />
  <polygon points="274.62,311.86 330.47,311.86 302.55,404.94 " style="stroke: none; stroke-width: 1; stroke-dasharray: none; stroke-linecap: butt; stroke-linejoin: miter; stroke-miterlimit: 10; fill: #FFFFFF; fill-rule: nonzero; opacity: 1;" transform="  matrix(1 0 0 1 0 0) "/>
  <polygon points="302.55,311.86 288.58,358.4 302.55,404.94 316.51,358.4 " style="stroke: none; stroke-width: 1; stroke-dasharray: none; stroke-linecap: butt; stroke-linejoin: miter; stroke-miterlimit: 10; fill: #DF2C2C; fill-rule: nonzero; opacity: 1;" transform="  matrix(1 0 0 1 0 0) "/>
  <path d="M 351.255 255.558 c -8.96 1.792 -18.493 2.769 -28.346 2.769 c -25.33 0 -48.547 -6.274 -66.304 -16.701 c 6.842 -18.735 24.846 -32.172 45.94 -32.172 C 328.527 209.455 349.873 229.902 351.255 255.558 z" style="stroke: none; stroke-width: 1; stroke-dasharray: none; stroke-linecap: butt; stroke-linejoin: miter; stroke-miterlimit: 10; fill: #692E19; fill-rule: nonzero; opacity: 1;" transform=" matrix(1 0 0 1 0 0) " stroke-linecap="round" />
  <polygon points="288.58,358.4 302.55,404.94 302.55,311.86 " style="stroke: none; stroke-width: 1; stroke-dasharray: none; stroke-linecap: butt; stroke-linejoin: miter; stroke-miterlimit: 10; fill: #FA5655; fill-rule: nonzero; opacity: 1;" transform="  matrix(1 0 0 1 0 0) "/>
  <path d="M 302.545 209.455 c -21.094 0 -39.098 13.438 -45.94 32.177 c 12.865 7.554 28.616 12.884 45.94 15.272 V 209.455 z" style="stroke: none; stroke-width: 1; stroke-dasharray: none; stroke-linecap: butt; stroke-linejoin: miter; stroke-miterlimit: 10; fill: #84462D; fill-rule: nonzero; opacity: 1;" transform=" matrix(1 0 0 1 0 0) " stroke-linecap="round" />
  <path d="M 269.964 174.49 c 0 -37.246 -36.901 -67.435 -82.418 -67.435 s -82.418 30.189 -82.418 67.435 s 36.901 67.435 82.418 67.435 c 0.489 0 0.973 -0.023 1.462 -0.028 l 28.509 18.758 l -2.644 -22.542 C 246.956 228.883 269.964 203.892 269.964 174.49 z" style="stroke: none; stroke-width: 1; stroke-dasharray: none; stroke-linecap: butt; stroke-linejoin: miter; stroke-miterlimit: 10; fill: #FFFFFF; fill-rule: nonzero; opacity: 1;" transform=" matrix(1 0 0 1 0 0) " stroke-linecap="round" />
  <path d="M 144.291 153.6 h 83.782 c 2.569 0 4.655 -2.085 4.655 -4.655 s -2.085 -4.655 -4.655 -4.655 h -83.782 c -2.569 0 -4.655 2.085 -4.655 4.655 S 141.722 153.6 144.291 153.6 z" style="stroke: none; stroke-width: 1; stroke-dasharray: none; stroke-linecap: butt; stroke-linejoin: miter; stroke-miterlimit: 10; fill: #CFD3D4; fill-rule: nonzero; opacity: 1;" transform=" matrix(1 0 0 1 0 0) " stroke-linecap="round" />
  <path d="M 228.073 167.564 h -83.782 c -2.569 0 -4.655 2.085 -4.655 4.655 c 0 2.569 2.085 4.655 4.655 4.655 h 83.782 c 2.569 0 4.655 -2.085 4.655 -4.655 C 232.727 169.649 230.642 167.564 228.073 167.564 z" style="stroke: none; stroke-width: 1; stroke-dasharray: none; stroke-linecap: butt; stroke-linejoin: miter; stroke-miterlimit: 10; fill: #CFD3D4; fill-rule: nonzero; opacity: 1;" transform=" matrix(1 0 0 1 0 0) " stroke-linecap="round" />
  <path d="M 228.073 190.836 h -83.782 c -2.569 0 -4.655 2.085 -4.655 4.655 c 0 2.569 2.085 4.655 4.655 4.655 h 83.782 c 2.569 0 4.655 -2.085 4.655 -4.655 C 232.727 192.922 230.642 190.836 228.073 190.836 z" style="stroke: none; stroke-width: 1; stroke-dasharray: none; stroke-linecap: butt; stroke-linejoin: miter; stroke-miterlimit: 10; fill: #CFD3D4; fill-rule: nonzero; opacity: 1;" transform=" matrix(1 0 0 1 0 0) " stroke-linecap="round" />
</g>
</svg>